AmstelvarAlpha-opsz-max.ufo
<glyph name="exclam" format="1">
  <advance width="501"/>
  <unicode hex="0021"/>
  <outline>
    <contour>
      <point x="127" y="100" type="qcurve" smooth="yes"/>
      <point x="127" y="151"/>
      <point x="195" y="221"/>
      <point x="250" y="221" type="qcurve" smooth="yes"/>
      <point x="305" y="221"/>
      <point x="373" y="150"/>
      <point x="373" y="100" type="qcurve" smooth="yes"/>
      <point x="373" y="49"/>
      <point x="305" y="-22"/>
      <point x="250" y="-22" type="qcurve" smooth="yes"/>
      <point x="196" y="-22"/>
      <point x="127" y="49"/>
    </contour>
    <contour>
      <point x="156" y="1520" type="line"/>
      <point x="346" y="1520" type="line"/>
      <point x="334" y="1190" type="line"/>
      <point x="269" y="831" type="line"/>
      <point x="265" y="404" type="line"/>
      <point x="235" y="404" type="line"/>
      <point x="230" y="831" type="line"/>
      <point x="168" y="1190" type="line"/>
    </contour>
  </outline>
</glyph>
<glyph name="ampersand" format="1">
  <advance width="987"/>
  <unicode hex="0026"/>
  <outline>
    <contour>
      <point x="44" y="389" type="qcurve" smooth="yes"/>
      <point x="44" y="560"/>
      <point x="275" y="770"/>
      <point x="447" y="794" type="qcurve"/>
      <point x="275" y="807"/>
      <point x="114" y="982"/>
      <point x="114" y="1152" type="qcurve" smooth="yes"/>
      <point x="114" y="1322"/>
      <point x="302" y="1516"/>
      <point x="470" y="1516" type="qcurve" smooth="yes"/>
      <point x="572" y="1516"/>
      <point x="737" y="1452"/>
      <point x="799" y="1387" type="qcurve"/>
      <point x="730" y="1321" type="line"/>
      <point x="691" y="1407"/>
      <point x="570" y="1481"/>
      <point x="479" y="1481" type="qcurve" smooth="yes"/>
      <point x="371" y="1481"/>
      <point x="280" y="1327"/>
      <point x="280" y="1152" type="qcurve" smooth="yes"/>
      <point x="280" y="991"/>
      <point x="389" y="810"/>
      <point x="584" y="810" type="qcurve" smooth="yes"/>
      <point x="604" y="810"/>
      <point x="609" y="807"/>
      <point x="609" y="794" type="qcurve" smooth="yes"/>
      <point x="609" y="783"/>
      <point x="601" y="779"/>
      <point x="578" y="779" type="qcurve" smooth="yes"/>
      <point x="387" y="779"/>
      <point x="220" y="560"/>
      <point x="220" y="384" type="qcurve" smooth="yes"/>
      <point x="220" y="204"/>
      <point x="361" y="12"/>
      <point x="498" y="12" type="qcurve" smooth="yes"/>
      <point x="612" y="12"/>
      <point x="820" y="180"/>
      <point x="878" y="366" type="qcurve"/>
      <point x="893" y="213" type="line"/>
      <point x="834" y="95"/>
      <point x="612" y="-20"/>
      <point x="493" y="-20" type="qcurve" smooth="yes"/>
      <point x="294" y="-20"/>
      <point x="44" y="197"/>
    </contour>
    <contour>
      <point x="722" y="1332" type="line"/>
      <point x="803" y="1487" type="line"/>
      <point x="827" y="1487" type="line"/>
      <point x="827" y="1116" type="line"/>
      <point x="800" y="1116" type="line"/>
    </contour>
    <contour>
      <point x="821" y="168" type="line"/>
      <point x="900" y="475" type="line"/>
      <point x="928" y="475" type="line"/>
      <point x="922" y="0" type="line"/>
      <point x="897" y="0" type="line"/>
    </contour>
  </outline>
</glyph>
<glyph name="plus" format="1">
  <advance width="879"/>
  <unicode hex="002B"/>
  <outline>
    <contour>
      <point x="69" y="611" type="line"/>
      <point x="69" y="653" type="line"/>
      <point x="810" y="653" type="line"/>
      <point x="810" y="611" type="line"/>
    </contour>
    <contour>
      <point x="417" y="261" type="line"/>
      <point x="417" y="1003" type="line"/>
      <point x="462" y="1003" type="line"/>
      <point x="462" y="261" type="line"/>
    </contour>
  </outline>
</glyph>
<glyph name="hyphen" format="1">
  <advance width="612"/>
  <unicode hex="002D"/>
  <outline>
    <contour>
      <point x="60" y="559" type="line"/>
      <point x="60" y="605" type="line"/>
      <point x="307" y="602" type="line"/>
      <point x="552" y="605" type="line"/>
      <point x="552" y="559" type="line"/>
      <point x="307" y="562" type="line"/>
    </contour>
  </outline>
</glyph>
<glyph name="slash" format="1">
  <advance width="542"/>
  <unicode hex="002F"/>
  <outline>
    <contour>
      <point x="-29" y="-146" type="line"/>
      <point x="526" y="1540" type="line"/>
      <point x="561" y="1534" type="line"/>
      <point x="7" y="-153" type="line"/>
    </contour>
  </outline>
</glyph>
<glyph name="three" format="1">
  <advance width="786"/>
  <unicode hex="0033"/>
  <outline>
    <contour>
      <point x="-25" y="167" type="qcurve"/>
      <point x="-23" y="201" type="line"/>
      <point x="59" y="109"/>
      <point x="232" y="49"/>
      <point x="332" y="49" type="qcurve" smooth="yes"/>
      <point x="445" y="49"/>
      <point x="573" y="223"/>
      <point x="573" y="399" type="qcurve" smooth="yes"/>
      <point x="573" y="574"/>
      <point x="402" y="762"/>
      <point x="220" y="762" type="qcurve" smooth="yes"/>
      <point x="195" y="762" type="line"/>
      <point x="186" y="790" type="line"/>
      <point x="237" y="791" type="line" smooth="yes"/>
      <point x="378" y="791"/>
      <point x="546" y="978"/>
      <point x="546" y="1158" type="qcurve" smooth="yes"/>
      <point x="546" y="1318"/>
      <point x="436" y="1455"/>
      <point x="347" y="1455" type="qcurve" smooth="yes"/>
      <point x="249" y="1455"/>
      <point x="101" y="1389"/>
      <point x="40" y="1322" type="qcurve"/>
      <point x="36" y="1347" type="line"/>
      <point x="94" y="1426"/>
      <point x="271" y="1520"/>
      <point x="392" y="1520" type="qcurve" smooth="yes"/>
      <point x="535" y="1520"/>
      <point x="729" y="1338"/>
      <point x="729" y="1183" type="qcurve" smooth="yes"/>
      <point x="729" y="1027"/>
      <point x="580" y="849"/>
      <point x="435" y="802" type="qcurve"/>
      <point x="435" y="795" type="line"/>
      <point x="578" y="770"/>
      <point x="763" y="564"/>
      <point x="763" y="388" type="qcurve" smooth="yes"/>
      <point x="763" y="199"/>
      <point x="536" y="-23"/>
      <point x="370" y="-23" type="qcurve" smooth="yes"/>
      <point x="236" y="-23"/>
      <point x="36" y="81"/>
    </contour>
  </outline>
</glyph>
<glyph name="four" format="1">
  <advance width="957"/>
  <unicode hex="0034"/>
  <outline>
    <contour>
      <point x="25" y="457" type="line"/>
      <point x="14" y="497" type="line"/>
      <point x="588" y="1512" type="line"/>
      <point x="637" y="1512" type="line"/>
      <point x="718" y="1450" type="line"/>
      <point x="712" y="504" type="line"/>
      <point x="956" y="504" type="line"/>
      <point x="956" y="475" type="line"/>
      <point x="712" y="467" type="line"/>
      <point x="712" y="59" type="line"/>
      <point x="889" y="24" type="line"/>
      <point x="889" y="0" type="line"/>
      <point x="351" y="0" type="line"/>
      <point x="351" y="24" type="line"/>
      <point x="536" y="59" type="line"/>
      <point x="536" y="463" type="line"/>
    </contour>
    <contour>
      <point x="57" y="504" type="line"/>
      <point x="534" y="504" type="line"/>
      <point x="532" y="1305" type="line"/>
      <point x="54" y="511" type="line"/>
    </contour>
  </outline>
</glyph>
<glyph name="five" format="1">
  <advance width="802"/>
  <unicode hex="0035"/>
  <outline>
    <contour>
      <point x="-24" y="106" type="qcurve"/>
      <point x="-24" y="136" type="line"/>
      <point x="45" y="76"/>
      <point x="220" y="23"/>
      <point x="312" y="23" type="qcurve" smooth="yes"/>
      <point x="434" y="23"/>
      <point x="586" y="236"/>
      <point x="586" y="437" type="qcurve" smooth="yes"/>
      <point x="586" y="643"/>
      <point x="364" y="812"/>
      <point x="213" y="812" type="qcurve" smooth="yes"/>
      <point x="109" y="812" type="line"/>
      <point x="125" y="864" type="line"/>
      <point x="318" y="945" type="line"/>
      <point x="522" y="951"/>
      <point x="774" y="719"/>
      <point x="774" y="487" type="qcurve" smooth="yes"/>
      <point x="774" y="257"/>
      <point x="542" y="-23"/>
      <point x="355" y="-23" type="qcurve" smooth="yes"/>
      <point x="229" y="-23"/>
      <point x="42" y="45"/>
    </contour>
    <contour>
      <point x="108" y="816" type="qcurve"/>
      <point x="164" y="1467" type="line"/>
      <point x="191" y="1500" type="line"/>
      <point x="713" y="1500" type="line"/>
      <point x="703" y="1324" type="line"/>
      <point x="196" y="1324" type="line"/>
      <point x="186" y="1313" type="line"/>
      <point x="146" y="888"/>
      <point x="138" y="841"/>
    </contour>
  </outline>
</glyph>
<glyph name="equal" format="1">
  <advance width="879"/>
  <unicode hex="003D"/>
  <outline>
    <contour>
      <point x="102" y="408" type="line"/>
      <point x="102" y="456" type="line"/>
      <point x="438" y="453" type="line"/>
      <point x="777" y="456" type="line"/>
      <point x="777" y="408" type="line"/>
      <point x="438" y="411" type="line"/>
    </contour>
    <contour>
      <point x="102" y="776" type="line"/>
      <point x="102" y="824" type="line"/>
      <point x="438" y="821" type="line"/>
      <point x="777" y="824" type="line"/>
      <point x="777" y="776" type="line"/>
      <point x="438" y="779" type="line"/>
    </contour>
  </outline>
</glyph>
<glyph name="question" format="1">
  <advance width="761"/>
  <unicode hex="003F"/>
  <outline>
    <contour>
      <point x="143" y="100" type="qcurve" smooth="yes"/>
      <point x="143" y="149"/>
      <point x="212" y="221"/>
      <point x="266" y="221" type="qcurve" smooth="yes"/>
      <point x="320" y="221"/>
      <point x="388" y="149"/>
      <point x="388" y="100" type="qcurve" smooth="yes"/>
      <point x="388" y="51"/>
      <point x="320" y="-22"/>
      <point x="266" y="-22" type="qcurve" smooth="yes"/>
      <point x="212" y="-22"/>
      <point x="143" y="51"/>
    </contour>
    <contour>
      <point x="39" y="1345" type="line"/>
      <point x="88" y="1429"/>
      <point x="259" y="1533"/>
      <point x="366" y="1533" type="qcurve" smooth="yes"/>
      <point x="531" y="1533"/>
      <point x="743" y="1310"/>
      <point x="743" y="1116" type="qcurve" smooth="yes"/>
      <point x="743" y="917"/>
      <point x="552" y="726"/>
      <point x="404" y="726" type="qcurve" smooth="yes"/>
      <point x="368" y="726"/>
      <point x="310" y="736"/>
      <point x="279" y="747" type="qcurve"/>
      <point x="270" y="402" type="line"/>
      <point x="238" y="402" type="line"/>
      <point x="240" y="607" type="line"/>
      <point x="231" y="776" type="line"/>
      <point x="251" y="800" type="line"/>
      <point x="274" y="795"/>
      <point x="343" y="788"/>
      <point x="372" y="788" type="qcurve" smooth="yes"/>
      <point x="469" y="788"/>
      <point x="557" y="932"/>
      <point x="557" y="1119" type="qcurve" smooth="yes"/>
      <point x="557" y="1303"/>
      <point x="447" y="1472"/>
      <point x="331" y="1472" type="qcurve" smooth="yes"/>
      <point x="251" y="1472"/>
      <point x="111" y="1401"/>
      <point x="53" y="1331" type="qcurve"/>
    </contour>
  </outline>
</glyph>
<glyph name="at" format="1">
  <advance width="1434"/>
  <unicode hex="0040"/>
  <outline>
    <contour>
      <point x="60" y="749" type="qcurve" smooth="yes"/>
      <point x="60" y="1068"/>
      <point x="420" y="1516"/>
      <point x="721" y="1516" type="qcurve" smooth="yes"/>
      <point x="1020" y="1516"/>
      <point x="1388" y="1135"/>
      <point x="1388" y="825" type="qcurve" smooth="yes"/>
      <point x="1388" y="589"/>
      <point x="1185" y="353"/>
      <point x="1049" y="353" type="qcurve" smooth="yes"/>
      <point x="948" y="353"/>
      <point x="823" y="445"/>
      <point x="824" y="563" type="qcurve" smooth="yes"/>
      <point x="827" y="874" type="line" smooth="yes"/>
      <point x="827" y="1019"/>
      <point x="751" y="1126"/>
      <point x="659" y="1126" type="qcurve" smooth="yes"/>
      <point x="599" y="1126"/>
      <point x="495" y="1078"/>
      <point x="455" y="1027" type="qcurve"/>
      <point x="441" y="1043" type="line"/>
      <point x="479" y="1106"/>
      <point x="604" y="1191"/>
      <point x="692" y="1191" type="qcurve" smooth="yes"/>
      <point x="824" y="1191"/>
      <point x="977" y="1043"/>
      <point x="978" y="875" type="qcurve" smooth="yes"/>
      <point x="983" y="409" type="line"/>
      <point x="1000" y="390"/>
      <point x="1034" y="380"/>
      <point x="1062" y="380" type="qcurve" smooth="yes"/>
      <point x="1169" y="380"/>
      <point x="1282" y="591"/>
      <point x="1282" y="809" type="qcurve" smooth="yes"/>
      <point x="1282" y="1106"/>
      <point x="1016" y="1482"/>
      <point x="722" y="1482" type="qcurve" smooth="yes"/>
      <point x="427" y="1482"/>
      <point x="171" y="1058"/>
      <point x="171" y="760" type="qcurve" smooth="yes"/>
      <point x="171" y="434"/>
      <point x="465" y="4"/>
      <point x="729" y="4" type="qcurve" smooth="yes"/>
      <point x="851" y="4"/>
      <point x="1039" y="82"/>
      <point x="1094" y="145" type="qcurve"/>
      <point x="1108" y="128" type="line"/>
      <point x="1049" y="58"/>
      <point x="850" y="-26"/>
      <point x="727" y="-26" type="qcurve" smooth="yes"/>
      <point x="433" y="-26"/>
      <point x="60" y="402"/>
    </contour>
    <contour>
      <point x="378" y="578" type="qcurve" smooth="yes"/>
      <point x="378" y="684"/>
      <point x="606" y="821"/>
      <point x="848" y="878" type="qcurve"/>
      <point x="849" y="856" type="line"/>
      <point x="697" y="820"/>
      <point x="537" y="690"/>
      <point x="537" y="570" type="qcurve" smooth="yes"/>
      <point x="537" y="479"/>
      <point x="598" y="387"/>
      <point x="663" y="387" type="qcurve" smooth="yes"/>
      <point x="730" y="387"/>
      <point x="826" y="511"/>
      <point x="827" y="592" type="qcurve"/>
      <point x="843" y="592" type="line"/>
      <point x="844" y="493"/>
      <point x="727" y="342"/>
      <point x="620" y="342" type="qcurve" smooth="yes"/>
      <point x="496" y="342"/>
      <point x="378" y="472"/>
    </contour>
  </outline>
</glyph>
<glyph name="H" format="1">
  <advance width="1398"/>
  <unicode hex="0048"/>
  <outline>
    <contour>
      <point x="61" y="0" type="line"/>
      <point x="61" y="25" type="line"/>
      <point x="221" y="60" type="line"/>
      <point x="223" y="775" type="line"/>
      <point x="221" y="1437" type="line"/>
      <point x="61" y="1471" type="line"/>
      <point x="61" y="1500" type="line"/>
      <point x="558" y="1500" type="line"/>
      <point x="558" y="1471" type="line"/>
      <point x="401" y="1437" type="line"/>
      <point x="399" y="775" type="line"/>
      <point x="401" y="60" type="line"/>
      <point x="558" y="25" type="line"/>
      <point x="558" y="0" type="line"/>
    </contour>
    <contour>
      <point x="314" y="766" type="line"/>
      <point x="314" y="798" type="line"/>
      <point x="699" y="795" type="line"/>
      <point x="1083" y="798" type="line"/>
      <point x="1083" y="766" type="line"/>
      <point x="699" y="766" type="line"/>
    </contour>
    <contour>
      <point x="840" y="0" type="line"/>
      <point x="840" y="25" type="line"/>
      <point x="997" y="60" type="line"/>
      <point x="999" y="775" type="line"/>
      <point x="997" y="1437" type="line"/>
      <point x="840" y="1471" type="line"/>
      <point x="840" y="1500" type="line"/>
      <point x="1337" y="1500" type="line"/>
      <point x="1337" y="1471" type="line"/>
      <point x="1177" y="1437" type="line"/>
      <point x="1175" y="775" type="line"/>
      <point x="1177" y="60" type="line"/>
      <point x="1337" y="25" type="line"/>
      <point x="1337" y="0" type="line"/>
    </contour>
  </outline>
</glyph>
<glyph name="I" format="1">
  <advance width="636"/>
  <unicode hex="0049"/>
  <outline>
    <contour>
      <point x="61" y="0" type="line"/>
      <point x="61" y="25" type="line"/>
      <point x="228" y="60" type="line"/>
      <point x="230" y="754" type="line"/>
      <point x="228" y="1437" type="line"/>
      <point x="61" y="1471" type="line"/>
      <point x="61" y="1500" type="line"/>
      <point x="575" y="1500" type="line"/>
      <point x="575" y="1471" type="line"/>
      <point x="408" y="1437" type="line"/>
      <point x="406" y="754" type="line"/>
      <point x="408" y="61" type="line"/>
      <point x="575" y="25" type="line"/>
      <point x="575" y="0" type="line"/>
    </contour>
  </outline>
</glyph>
<glyph name="J" format="1">
  <advance width="565"/>
  <unicode hex="004A"/>
  <outline>
    <contour>
      <point x="13" y="0" type="qcurve"/>
      <point x="13" y="26" type="line"/>
      <point x="50" y="26" type="line" smooth="yes"/>
      <point x="157" y="26"/>
      <point x="241" y="122"/>
      <point x="240" y="239" type="qcurve" smooth="yes"/>
      <point x="238" y="754" type="line"/>
      <point x="236" y="1437" type="line"/>
      <point x="54" y="1471" type="line"/>
      <point x="54" y="1500" type="line"/>
      <point x="563" y="1500" type="line"/>
      <point x="563" y="1471" type="line"/>
      <point x="416" y="1437" type="line"/>
      <point x="414" y="754" type="line"/>
      <point x="417" y="323" type="line" smooth="yes"/>
      <point x="419" y="149"/>
      <point x="265" y="-14"/>
      <point x="144" y="-14" type="qcurve" smooth="yes"/>
      <point x="103" y="-14"/>
      <point x="42" y="-6"/>
    </contour>
  </outline>
</glyph>
<glyph name="L" format="1">
  <advance width="1041"/>
  <unicode hex="004C"/>
  <outline>
    <contour>
      <point x="61" y="0" type="line"/>
      <point x="61" y="25" type="line"/>
      <point x="221" y="57" type="line"/>
      <point x="223" y="754" type="line"/>
      <point x="221" y="1437" type="line"/>
      <point x="61" y="1471" type="line"/>
      <point x="61" y="1500" type="line"/>
      <point x="586" y="1500" type="line"/>
      <point x="586" y="1471" type="line"/>
      <point x="401" y="1437" type="line"/>
      <point x="399" y="754" type="line"/>
      <point x="401" y="53" type="line"/>
      <point x="488" y="28" type="line"/>
      <point x="842" y="28" type="line"/>
      <point x="1013" y="383" type="line"/>
      <point x="1041" y="383" type="line"/>
      <point x="994" y="0" type="line"/>
    </contour>
  </outline>
</glyph>
<glyph name="O" format="1">
  <advance width="1330"/>
  <unicode hex="004F"/>
  <outline>
    <contour>
      <point x="60" y="741" type="qcurve" smooth="yes"/>
      <point x="60" y="1100"/>
      <point x="390" y="1519"/>
      <point x="665" y="1519" type="qcurve" smooth="yes"/>
      <point x="940" y="1519"/>
      <point x="1270" y="1119"/>
      <point x="1270" y="754" type="qcurve" smooth="yes"/>
      <point x="1270" y="406"/>
      <point x="944" y="-26"/>
      <point x="668" y="-26" type="qcurve" smooth="yes"/>
      <point x="398" y="-26"/>
      <point x="60" y="389"/>
    </contour>
    <contour>
      <point x="251" y="781" type="qcurve" smooth="yes"/>
      <point x="251" y="400"/>
      <point x="478" y="5"/>
      <point x="666" y="5" type="qcurve" smooth="yes"/>
      <point x="870" y="5"/>
      <point x="1079" y="364"/>
      <point x="1079" y="752" type="qcurve" smooth="yes"/>
      <point x="1079" y="1111"/>
      <point x="858" y="1487"/>
      <point x="666" y="1487" type="qcurve" smooth="yes"/>
      <point x="462" y="1487"/>
      <point x="251" y="1153"/>
    </contour>
  </outline>
</glyph>
<glyph name="V" format="1">
  <advance width="1156"/>
  <unicode hex="0056"/>
  <outline>
    <contour>
      <point x="-46" y="1473" type="line"/>
      <point x="-46" y="1500" type="line"/>
      <point x="409" y="1500" type="line"/>
      <point x="409" y="1473" type="line"/>
      <point x="279" y="1432" type="line"/>
      <point x="463" y="823" type="line"/>
      <point x="650" y="182" type="line"/>
      <point x="818" y="813" type="line"/>
      <point x="995" y="1438" type="line"/>
      <point x="797" y="1473" type="line"/>
      <point x="797" y="1500" type="line"/>
      <point x="1225" y="1500" type="line"/>
      <point x="1225" y="1473" type="line"/>
      <point x="1030" y="1436" type="line"/>
      <point x="849" y="803" type="line"/>
      <point x="639" y="-6" type="line"/>
      <point x="520" y="-6" type="line"/>
      <point x="291" y="774" type="line"/>
      <point x="84" y="1434" type="line"/>
    </contour>
  </outline>
</glyph>
<glyph name="backslash" format="1">
  <advance width="542"/>
  <unicode hex="005C"/>
  <outline>
    <contour>
      <point x="-19" y="1534" type="line"/>
      <point x="17" y="1540" type="line"/>
      <point x="571" y="-146" type="line"/>
      <point x="536" y="-153" type="line"/>
    </contour>
  </outline>
</glyph>
<glyph name="grave" format="1">
  <advance width="827"/>
  <unicode hex="0060"/>
  <outline>
    <contour>
      <point x="261" y="1328" type="qcurve" smooth="yes"/>
      <point x="261" y="1343"/>
      <point x="284" y="1368"/>
      <point x="303" y="1368" type="qcurve" smooth="yes"/>
      <point x="322" y="1368"/>
      <point x="357" y="1339"/>
      <point x="372" y="1315" type="qcurve"/>
      <point x="550" y="1060" type="line"/>
      <point x="520" y="1060" type="line"/>
      <point x="299" y="1263" type="line"/>
      <point x="283" y="1280"/>
      <point x="261" y="1312"/>
    </contour>
  </outline>
</glyph>
<glyph name="i" format="1">
  <advance width="534"/>
  <unicode hex="0069"/>
  <outline>
    <contour>
      <point x="59" y="0" type="line"/>
      <point x="59" y="21" type="line"/>
      <point x="190" y="56" type="line"/>
      <point x="192" y="477" type="line"/>
      <point x="186" y="860" type="line"/>
      <point x="53" y="895" type="line"/>
      <point x="53" y="919" type="line"/>
      <point x="311" y="957" type="line"/>
      <point x="325" y="957" type="line"/>
      <point x="365" y="918" type="line"/>
      <point x="358" y="477" type="line"/>
      <point x="360" y="56" type="line"/>
      <point x="484" y="21" type="line"/>
      <point x="484" y="0" type="line"/>
    </contour>
    <contour>
      <point x="163" y="1304" type="qcurve" smooth="yes"/>
      <point x="163" y="1356"/>
      <point x="219" y="1411"/>
      <point x="272" y="1411" type="qcurve" smooth="yes"/>
      <point x="321" y="1411"/>
      <point x="380" y="1352"/>
      <point x="380" y="1304" type="qcurve" smooth="yes"/>
      <point x="380" y="1253"/>
      <point x="324" y="1198"/>
      <point x="272" y="1198" type="qcurve" smooth="yes"/>
      <point x="222" y="1198"/>
      <point x="163" y="1257"/>
    </contour>
  </outline>
</glyph>
<glyph name="l" format="1">
  <advance width="528"/>
  <unicode hex="006C"/>
  <outline>
    <contour>
      <point x="56" y="0" type="line"/>
      <point x="56" y="21" type="line"/>
      <point x="184" y="56" type="line"/>
      <point x="186" y="527" type="line"/>
      <point x="184" y="1446" type="line"/>
      <point x="35" y="1476" type="line"/>
      <point x="35" y="1500" type="line"/>
      <point x="327" y="1534" type="line"/>
      <point x="343" y="1533" type="line"/>
      <point x="354" y="1502" type="line"/>
      <point x="352" y="527" type="line"/>
      <point x="354" y="56" type="line"/>
      <point x="479" y="21" type="line"/>
      <point x="479" y="0" type="line"/>
    </contour>
  </outline>
</glyph>
<glyph name="m" format="1">
  <advance width="1587"/>
  <unicode hex="006D"/>
  <outline>
    <contour>
      <point x="56" y="0" type="line"/>
      <point x="56" y="21" type="line"/>
      <point x="174" y="56" type="line"/>
      <point x="176" y="542" type="line"/>
      <point x="174" y="860" type="line"/>
      <point x="56" y="895" type="line"/>
      <point x="56" y="919" type="line"/>
      <point x="317" y="953" type="line"/>
      <point x="336" y="942" type="line"/>
      <point x="343" y="811" type="line"/>
      <point x="342" y="542" type="line"/>
      <point x="344" y="56" type="line"/>
      <point x="451" y="21" type="line"/>
      <point x="451" y="0" type="line"/>
    </contour>
    <contour>
      <point x="338" y="761" type="qcurve"/>
      <point x="326" y="776" type="line"/>
      <point x="359" y="857"/>
      <point x="517" y="972"/>
      <point x="626" y="972" type="qcurve" smooth="yes"/>
      <point x="756" y="972"/>
      <point x="882" y="846"/>
      <point x="882" y="738" type="qcurve" smooth="yes"/>
      <point x="882" y="667"/>
      <point x="880" y="477"/>
      <point x="880" y="477" type="qcurve"/>
      <point x="885" y="56" type="line"/>
      <point x="999" y="21" type="line"/>
      <point x="999" y="0" type="line"/>
      <point x="594" y="0" type="line"/>
      <point x="594" y="21" type="line"/>
      <point x="715" y="56" type="line"/>
      <point x="717" y="510" type="line"/>
      <point x="717" y="713" type="line" smooth="yes"/>
      <point x="717" y="807"/>
      <point x="643" y="905"/>
      <point x="564" y="905" type="qcurve" smooth="yes"/>
      <point x="490" y="905"/>
      <point x="374" y="830"/>
    </contour>
    <contour>
      <point x="875" y="761" type="qcurve"/>
      <point x="864" y="776" type="line"/>
      <point x="901" y="862"/>
      <point x="1063" y="972"/>
      <point x="1166" y="972" type="qcurve" smooth="yes"/>
      <point x="1294" y="972"/>
      <point x="1422" y="846"/>
      <point x="1422" y="738" type="qcurve" smooth="yes"/>
      <point x="1422" y="667"/>
      <point x="1418" y="477"/>
      <point x="1418" y="477" type="qcurve"/>
      <point x="1423" y="56" type="line"/>
      <point x="1538" y="21" type="line"/>
      <point x="1538" y="0" type="line"/>
      <point x="1133" y="0" type="line"/>
      <point x="1133" y="21" type="line"/>
      <point x="1253" y="56" type="line"/>
      <point x="1255" y="486" type="line"/>
      <point x="1255" y="713" type="line" smooth="yes"/>
      <point x="1255" y="807"/>
      <point x="1180" y="905"/>
      <point x="1104" y="905" type="qcurve" smooth="yes"/>
      <point x="1034" y="905"/>
      <point x="913" y="835"/>
    </contour>
  </outline>
</glyph>
<glyph name="n" format="1">
  <advance width="1053"/>
  <unicode hex="006E"/>
  <outline>
    <contour>
      <point x="56" y="0" type="line"/>
      <point x="56" y="21" type="line"/>
      <point x="174" y="56" type="line"/>
      <point x="176" y="519" type="line"/>
      <point x="174" y="860" type="line"/>
      <point x="56" y="895" type="line"/>
      <point x="56" y="919" type="line"/>
      <point x="317" y="953" type="line"/>
      <point x="336" y="942" type="line"/>
      <point x="343" y="775" type="line"/>
      <point x="342" y="519" type="line"/>
      <point x="344" y="56" type="line"/>
      <point x="452" y="21" type="line"/>
      <point x="452" y="0" type="line"/>
    </contour>
    <contour>
      <point x="338" y="761" type="qcurve"/>
      <point x="326" y="776" type="line"/>
      <point x="360" y="857"/>
      <point x="517" y="972"/>
      <point x="626" y="972" type="qcurve" smooth="yes"/>
      <point x="757" y="972"/>
      <point x="885" y="846"/>
      <point x="885" y="738" type="qcurve" smooth="yes"/>
      <point x="885" y="667"/>
      <point x="881" y="477"/>
      <point x="881" y="477" type="qcurve"/>
      <point x="886" y="56" type="line"/>
      <point x="1004" y="21" type="line"/>
      <point x="1004" y="0" type="line"/>
      <point x="595" y="0" type="line"/>
      <point x="595" y="21" type="line"/>
      <point x="716" y="56" type="line"/>
      <point x="718" y="521" type="line"/>
      <point x="718" y="714" type="line" smooth="yes"/>
      <point x="718" y="808"/>
      <point x="643" y="903"/>
      <point x="564" y="903" type="qcurve" smooth="yes"/>
      <point x="491" y="903"/>
      <point x="373" y="830"/>
    </contour>
  </outline>
</glyph>
<glyph name="o" format="1">
  <advance width="968"/>
  <unicode hex="006F"/>
  <outline>
    <contour>
      <point x="48" y="475" type="qcurve" smooth="yes"/>
      <point x="48" y="697"/>
      <point x="292" y="972"/>
      <point x="483" y="972" type="qcurve" smooth="yes"/>
      <point x="674" y="972"/>
      <point x="921" y="713"/>
      <point x="921" y="481" type="qcurve" smooth="yes"/>
      <point x="921" y="258"/>
      <point x="680" y="-20"/>
      <point x="487" y="-20" type="qcurve" smooth="yes"/>
      <point x="294" y="-20"/>
      <point x="48" y="242"/>
    </contour>
    <contour>
      <point x="227" y="495" type="qcurve" smooth="yes"/>
      <point x="228" y="241"/>
      <point x="365" y="7"/>
      <point x="481" y="7" type="qcurve" smooth="yes"/>
      <point x="605" y="7"/>
      <point x="737" y="210"/>
      <point x="736" y="476" type="qcurve" smooth="yes"/>
      <point x="736" y="726"/>
      <point x="598" y="943"/>
      <point x="483" y="943" type="qcurve" smooth="yes"/>
      <point x="359" y="943"/>
      <point x="227" y="745"/>
    </contour>
  </outline>
</glyph>
<glyph name="p" format="1">
  <advance width="999"/>
  <unicode hex="0070"/>
  <outline>
    <contour>
      <point x="46" y="-460" type="line"/>
      <point x="46" y="-439" type="line"/>
      <point x="161" y="-404" type="line"/>
      <point x="163" y="404" type="line"/>
      <point x="161" y="860" type="line"/>
      <point x="42" y="895" type="line"/>
      <point x="42" y="919" type="line"/>
      <point x="305" y="953" type="line"/>
      <point x="321" y="942" type="line"/>
      <point x="329" y="803" type="line"/>
      <point x="329" y="404" type="line"/>
      <point x="331" y="-404" type="line"/>
      <point x="454" y="-439" type="line"/>
      <point x="454" y="-460" type="line"/>
    </contour>
    <contour>
      <point x="296" y="110" type="qcurve"/>
      <point x="321" y="147" type="line"/>
      <point x="344" y="89"/>
      <point x="463" y="17"/>
      <point x="541" y="17" type="qcurve" smooth="yes"/>
      <point x="645" y="17"/>
      <point x="763" y="213"/>
      <point x="763" y="484" type="qcurve" smooth="yes"/>
      <point x="763" y="735"/>
      <point x="648" y="922"/>
      <point x="545" y="922" type="qcurve" smooth="yes"/>
      <point x="454" y="922"/>
      <point x="338" y="821"/>
      <point x="316" y="770" type="qcurve"/>
      <point x="303" y="782" type="line"/>
      <point x="330" y="858"/>
      <point x="476" y="973"/>
      <point x="607" y="972" type="qcurve" smooth="yes"/>
      <point x="752" y="973"/>
      <point x="948" y="736"/>
      <point x="948" y="500" type="qcurve" smooth="yes"/>
      <point x="948" y="254"/>
      <point x="742" y="-10"/>
      <point x="562" y="-10" type="qcurve" smooth="yes"/>
      <point x="463" y="-10"/>
      <point x="320" y="64"/>
    </contour>
  </outline>
</glyph>
<glyph name="q" format="1">
  <advance width="990"/>
  <unicode hex="0071"/>
  <outline>
    <contour>
      <point x="51" y="459" type="qcurve" smooth="yes"/>
      <point x="51" y="705"/>
      <point x="280" y="971"/>
      <point x="467" y="971" type="qcurve" smooth="yes"/>
      <point x="563" y="971"/>
      <point x="692" y="891"/>
      <point x="717" y="841" type="qcurve"/>
      <point x="687" y="802" type="line"/>
      <point x="662" y="868"/>
      <point x="559" y="944"/>
      <point x="476" y="944" type="qcurve" smooth="yes"/>
      <point x="365" y="944"/>
      <point x="234" y="709"/>
      <point x="234" y="473" type="qcurve" smooth="yes"/>
      <point x="234" y="217"/>
      <point x="353" y="20"/>
      <point x="457" y="20" type="qcurve" smooth="yes"/>
      <point x="539" y="20"/>
      <point x="656" y="106"/>
      <point x="687" y="179" type="qcurve"/>
      <point x="732" y="194" type="line"/>
      <point x="697" y="106"/>
      <point x="548" y="-9"/>
      <point x="440" y="-9" type="qcurve" smooth="yes"/>
      <point x="281" y="-9"/>
      <point x="51" y="227"/>
    </contour>
    <contour>
      <point x="536" y="-460" type="line"/>
      <point x="536" y="-439" type="line"/>
      <point x="667" y="-404" type="line"/>
      <point x="674" y="219" type="line"/>
      <point x="676" y="866" type="line"/>
      <point x="746" y="959" type="line"/>
      <point x="959" y="925" type="line"/>
      <point x="959" y="901" type="line"/>
      <point x="840" y="871" type="line"/>
      <point x="836" y="405" type="line"/>
      <point x="837" y="-404" type="line"/>
      <point x="958" y="-439" type="line"/>
      <point x="958" y="-460" type="line"/>
    </contour>
  </outline>
</glyph>
<glyph name="t" format="1">
  <advance width="526"/>
  <unicode hex="0074"/>
  <outline>
    <contour>
      <point x="13" y="888" type="line"/>
      <point x="13" y="919" type="line"/>
      <point x="112" y="949"/>
      <point x="259" y="1102"/>
      <point x="282" y="1212" type="qcurve"/>
      <point x="305" y="1212" type="line"/>
      <point x="325" y="943" type="line"/>
      <point x="312" y="477" type="line"/>
      <point x="319" y="99" type="line"/>
      <point x="362" y="50" type="line"/>
      <point x="479" y="50" type="line"/>
      <point x="479" y="29" type="line"/>
      <point x="272" y="-8" type="line"/>
      <point x="197" y="-8"/>
      <point x="134" y="69"/>
      <point x="136" y="145" type="qcurve" smooth="yes"/>
      <point x="143" y="477" type="line"/>
      <point x="143" y="872" type="line"/>
    </contour>
    <contour>
      <point x="272" y="887" type="line"/>
      <point x="276" y="916" type="line"/>
      <point x="495" y="916" type="line"/>
      <point x="495" y="887" type="line"/>
    </contour>
  </outline>
</glyph>
<glyph name="u" format="1">
  <advance width="1040"/>
  <unicode hex="0075"/>
  <outline>
    <contour>
      <point x="42" y="895" type="line"/>
      <point x="42" y="919" type="line"/>
      <point x="269" y="953" type="line"/>
      <point x="304" y="953" type="line"/>
      <point x="329" y="917" type="line"/>
      <point x="327" y="473" type="line"/>
      <point x="327" y="269" type="line" smooth="yes"/>
      <point x="327" y="123"/>
      <point x="405" y="35"/>
      <point x="478" y="35" type="qcurve" smooth="yes"/>
      <point x="539" y="35"/>
      <point x="667" y="113"/>
      <point x="707" y="195" type="qcurve"/>
      <point x="719" y="178" type="line"/>
      <point x="685" y="93"/>
      <point x="516" y="-15"/>
      <point x="414" y="-15" type="qcurve" smooth="yes"/>
      <point x="290" y="-15"/>
      <point x="159" y="120"/>
      <point x="159" y="254" type="qcurve" smooth="yes"/>
      <point x="159" y="335"/>
      <point x="164" y="473"/>
      <point x="164" y="473" type="qcurve"/>
      <point x="159" y="865" type="line"/>
    </contour>
    <contour>
      <point x="592" y="895" type="line"/>
      <point x="592" y="919" type="line"/>
      <point x="811" y="953" type="line"/>
      <point x="846" y="953" type="line"/>
      <point x="871" y="917" type="line"/>
      <point x="869" y="473" type="line"/>
      <point x="871" y="83" type="line"/>
      <point x="991" y="53" type="line"/>
      <point x="991" y="31" type="line"/>
      <point x="761" y="-3" type="line"/>
      <point x="726" y="24" type="line"/>
      <point x="701" y="123" type="line"/>
      <point x="703" y="473" type="line"/>
      <point x="701" y="865" type="line"/>
    </contour>
  </outline>
</glyph>
<glyph name="v" format="1">
  <advance width="887"/>
  <unicode hex="0076"/>
  <outline>
    <contour>
      <point x="-28" y="927" type="line"/>
      <point x="-28" y="950" type="line"/>
      <point x="345" y="950" type="line"/>
      <point x="345" y="927" type="line"/>
      <point x="238" y="890" type="line"/>
      <point x="357" y="520" type="line"/>
      <point x="488" y="151" type="line"/>
      <point x="613" y="520" type="line"/>
      <point x="739" y="896" type="line"/>
      <point x="580" y="927" type="line"/>
      <point x="580" y="950" type="line"/>
      <point x="939" y="950" type="line"/>
      <point x="939" y="927" type="line"/>
      <point x="770" y="895" type="line"/>
      <point x="640" y="511" type="line"/>
      <point x="481" y="-6" type="line"/>
      <point x="375" y="-6" type="line"/>
      <point x="219" y="463" type="line"/>
      <point x="68" y="892" type="line"/>
    </contour>
  </outline>
</glyph>
<glyph name="y" format="1">
  <advance width="879"/>
  <unicode hex="0079"/>
  <outline>
    <contour>
      <point x="-34" y="927" type="line"/>
      <point x="-34" y="950" type="line"/>
      <point x="339" y="950" type="line"/>
      <point x="339" y="927" type="line"/>
      <point x="231" y="890" type="line"/>
      <point x="350" y="518" type="line"/>
      <point x="475" y="176" type="line"/>
      <point x="585" y="521" type="line"/>
      <point x="711" y="896" type="line"/>
      <point x="550" y="927" type="line"/>
      <point x="550" y="950" type="line"/>
      <point x="909" y="950" type="line"/>
      <point x="909" y="927" type="line"/>
      <point x="741" y="895" type="line"/>
      <point x="613" y="512" type="line"/>
      <point x="404" y="-162" type="line" smooth="yes"/>
      <point x="361" y="-317"/>
      <point x="177" y="-481"/>
      <point x="94" y="-481" type="qcurve"/>
      <point x="-36" y="-441" type="line"/>
      <point x="-36" y="-417" type="line"/>
      <point x="44" y="-417" type="line" smooth="yes"/>
      <point x="171" y="-417"/>
      <point x="346" y="-281"/>
      <point x="380" y="-144" type="qcurve"/>
      <point x="389" y="-54" type="line"/>
      <point x="212" y="464" type="line"/>
      <point x="61" y="892" type="line"/>
    </contour>
  </outline>
</glyph>
